<svg aria-hidden="true" style="position: absolute; width: 0; height: 0; overflow: hidden;" version="1.1" xmlns="http://www.w3.org/2000/svg" xmlns:xlink="http://www.w3.org/1999/xlink">
    <defs>
        <symbol id="g-tag" viewBox="0 0 21 32">
            <path  d="M10.667 0c-5.882 0-10.667 4.99-10.667 11.123 0 7.709 10.677 20.877 10.677 20.877s10.656-13.547 10.656-20.877c0-6.133-4.785-11.123-10.667-11.123zM13.885 14.38c-0.887 0.925-2.053 1.388-3.218 1.388s-2.331-0.463-3.218-1.388c-1.775-1.85-1.775-4.861 0-6.712 0.859-0.896 2.002-1.39 3.218-1.39s2.359 0.494 3.218 1.39c1.775 1.851 1.775 4.861 0 6.712z"></path>
        </symbol>
        <symbol id="placeholder" viewBox="50 0 50 50">
            <path  d="M16 0c-6.2 0-11.227 5.026-11.227 11.227s7.867 20.773 11.227 20.773c3.536 0 11.226-14.573 11.226-20.773s-5.026-11.227-11.226-11.227zM16 18.238c-3.873 0-7.012-3.139-7.012-7.011s3.139-7.011 7.012-7.011c3.873 0 7.012 3.139 7.012 7.011s-3.139 7.011-7.012 7.011z"></path>
        </symbol>
        <symbol id="polygon" viewBox="0 0 13 8">
            <path d="M6.5 8L0.00480968 0.5L12.9952 0.499999L6.5 8Z"></path>
        </symbol>
        <symbol id="vector" viewBox="0 0 12 12" >
            <path d="M1.50905 1.50905C2.48217 0.535922 3.77599 0 5.15217 0C6.52835 0 7.82217 0.535922 8.79527 1.50905C9.76838 2.48215 10.3043 3.77597 10.3043 5.15213C10.3043 6.41032 9.8561 7.59949 9.0356 8.53786L11.8969 11.3992C12.0344 11.5366 12.0344 11.7595 11.8969 11.8969C11.8282 11.9656 11.7381 12 11.6481 12C11.558 12 11.4679 11.9656 11.3992 11.8969L8.53791 9.03558C7.59954 9.85606 6.41037 10.3043 5.15217 10.3043C3.77597 10.3043 2.48219 9.76838 1.50907 8.79525C0.535968 7.82215 4.673e-05 6.52833 4.673e-05 5.15215C4.673e-05 3.77597 0.535945 2.48215 1.50905 1.50905ZM2.00677 8.29755C3.74116 10.0319 6.56316 10.0319 8.29755 8.29755C10.0319 6.56318 10.0319 3.74114 8.29755 2.00677C7.43027 1.13948 6.2914 0.705984 5.15215 0.705984C4.01318 0.705984 2.87384 1.1397 2.00674 2.00677C0.272413 3.74112 0.272413 6.56316 2.00677 8.29755Z"></path>
        </symbol>
        <symbol id="icon-close-40px" viewBox="0 0 32 32">
            <path d="M23.733 10.304l-1.504-1.504-5.963 5.963-5.963-5.963-1.504 1.504 5.963 5.963-5.963 5.963 1.504 1.504 5.963-5.963 5.963 5.963 1.504-1.504-5.963-5.963 5.963-5.963z"></path>
        </symbol>
        <symbol id="icon-circle-up" viewBox="0 0 32 32">
            <path d="M0 16c0 8.837 7.163 16 16 16s16-7.163 16-16-7.163-16-16-16-16 7.163-16 16zM29 16c0 7.18-5.82 13-13 13s-13-5.82-13-13 5.82-13 13-13 13 5.82 13 13z"></path>
            <path d="M22.086 20.914l2.829-2.829-8.914-8.914-8.914 8.914 2.828 2.828 6.086-6.086z"></path>
        </symbol>
        <symbol id="icon-ticket" viewBox="0 0 44 32">
            <path d="M5.020 1.568h-5.020v30.118h5.020v-30.118zM17.645 1.568h-5.020v30.118h5.020v-30.118zM25.25 1.568h-5.018v30.118h5.018v-30.118zM45.176 1.568h-7.454v30.118h7.454v-30.118zM10.039 1.568h-2.434v30.118h2.434v-30.118zM30.118 1.568h-2.434v30.118h2.434v-30.118zM35.138 1.568h-2.434v30.118h2.434v-30.118z"></path>
        </symbol>
    </defs>
</svg>