<svg width="107" height="90" viewBox="0 0 107 90" fill="none" xmlns="http://www.w3.org/2000/svg">
<g filter="url(#filter0_b)">
<path d="M-0.50013 90C13.5496 90 27.4617 87.6721 40.4419 83.1491C53.4221 78.6262 65.2163 71.9969 75.1509 63.6396C85.0855 55.2823 92.9661 45.3608 98.3427 34.4415C103.719 23.5222 106.487 11.819 106.487 7.62939e-06L-0.500126 1.82116e-05L-0.50013 90Z" fill="url(#paint0_linear)" fill-opacity="0.03"/>
</g>
<path d="M41.5953 46.2695C41.037 44.7177 39.8882 43.9417 38.1489 43.9413H37.6001V53.5133H38.1489C39.4933 53.5133 40.4855 52.9834 41.1257 51.9235C41.6651 51.019 41.9347 49.8679 41.9347 48.4704C41.9335 47.6392 41.8203 46.9055 41.5953 46.2695Z" fill="white"/>
<path d="M32.1765 46.3843C32.7354 47.9361 33.884 48.712 35.6224 48.712H36.1712V39.1401H35.6224C34.2781 39.1401 33.2858 39.67 32.6456 40.7298C32.1079 41.634 31.8388 42.7851 31.8385 44.1829C31.8385 45.0132 31.9512 45.747 32.1765 46.3843Z" fill="white"/>
<path d="M23.043 23.8536H30.3458V26.3887H25.6645V27.6562H29.5536V30.0617H25.6645V31.3436H30.3458V33.8787H23.043V23.8536Z" fill="white"/>
<path d="M34.0183 23.8411H43.4673L38.7428 34.0823L34.0183 23.8411ZM38.7428 32.8147L42.6463 24.374H34.8537L38.7428 32.8147Z" fill="white"/>
<path d="M47.2411 23.8531H54.5439V26.3882H49.8626V27.6557H53.7517V30.0612H49.8626V31.3431H54.5439V33.8782H47.2411V23.8531Z" fill="white"/>
<path d="M59.0381 33.8638V23.8411H59.5998L66.6002 30.6541V23.8411H67.1331V33.8662L59.0381 33.8638Z" fill="white"/>
<path d="M74.7817 33.8782V26.3882H70.9934V23.8531H79.0884V26.3882H75.3002V33.8782H74.7817Z" fill="white"/>
<path d="M27.3493 41.1378C27.983 41.1378 28.4872 41.2338 28.8617 41.4259C29.292 41.6358 29.6534 41.9642 29.9034 42.3724C30.1535 42.7807 30.2818 43.2519 30.2733 43.7305C30.2759 44.192 30.1459 44.6444 29.8988 45.0341C29.6476 45.4337 29.2947 45.7594 28.8761 45.9776C29.3958 46.1609 29.8512 46.4911 30.1868 46.9282C30.5352 47.3605 30.7235 47.8999 30.7198 48.455C30.7235 48.9402 30.5913 49.4167 30.3381 49.8306C30.0905 50.2417 29.7406 50.5816 29.3226 50.8173C29.1007 50.9364 28.8631 51.0237 28.6168 51.0766C28.3575 51.1342 28.0118 51.163 27.5797 51.163H23.1433V41.1378H27.3493Z" fill="white"/>
<path d="M44.2379 50.4356C43.4841 49.7778 43.112 48.7911 43.1216 47.4756H45.4695C45.4599 48.0229 45.6231 48.4406 45.9592 48.7287C46.2953 49.0168 46.7658 49.1608 47.3708 49.1608C47.8701 49.1608 48.2639 49.0792 48.5519 48.916C48.84 48.7527 48.9841 48.5031 48.9841 48.167C48.9841 47.8885 48.8376 47.6868 48.5447 47.562C48.265 47.4412 47.9727 47.3518 47.6733 47.2955C47.3852 47.2427 47.2076 47.2107 47.1403 47.1995C46.4878 47.0788 45.8468 46.9021 45.2246 46.6714C44.7022 46.4771 44.2368 46.1553 43.8706 45.7351C43.5057 45.3126 43.3233 44.7556 43.3233 44.0642C43.3233 43.3728 43.5057 42.7847 43.8706 42.2998C44.2355 41.8148 44.7229 41.4523 45.3326 41.2123C45.9689 40.9673 46.6458 40.8451 47.3276 40.8522C48.2014 40.8522 48.9576 41.0154 49.5962 41.3419C50.2348 41.6684 50.7365 42.1629 51.1014 42.8255C51.2708 43.1057 51.3833 43.4165 51.4327 43.7401C51.4706 44.0243 51.4898 44.3106 51.4903 44.5972H49.1425C49.1425 44.0786 49.0033 43.6969 48.7248 43.4521C48.4463 43.2072 48.0142 43.0848 47.4284 43.0848C46.9579 43.0848 46.593 43.1664 46.3337 43.3296C46.0745 43.4929 45.9448 43.7137 45.9448 43.9922C45.9448 44.2995 46.1177 44.5252 46.4634 44.6692C46.888 44.837 47.3266 44.9672 47.7741 45.0581C48.6384 45.231 49.3129 45.3966 49.7979 45.555C50.2867 45.7162 50.7225 46.0075 51.0582 46.3977C51.4135 46.801 51.5912 47.3675 51.5912 48.0973C51.5912 48.7887 51.3991 49.3841 51.015 49.8834C50.6309 50.3828 50.1244 50.7645 49.4954 51.0286C48.8495 51.296 48.1563 51.4307 47.4572 51.4247C46.0649 51.4231 44.9918 51.0934 44.2379 50.4356Z" fill="white"/>
<path d="M57.4967 51.163V43.6729H53.7085V41.1378H61.8035V43.6729H58.0153V51.163H57.4967Z" fill="white"/>
<path d="M64.526 41.1378H71.8288V43.6729H67.1475V44.9405H71.0366V47.3459H67.1475V48.6279H71.8288V51.163H64.526V41.1378Z" fill="white"/>
<path d="M82.6456 51.163H74.9395V41.1378H78.8429C79.6784 41.1378 80.3601 41.2867 80.8883 41.5843C81.3929 41.8588 81.8117 42.2676 82.0982 42.7655C82.3875 43.2692 82.5367 43.8411 82.5303 44.4219C82.5372 45.1512 82.293 45.8606 81.839 46.4313C81.4038 47.0045 80.7908 47.4173 80.0961 47.6052L82.6456 51.163ZM75.4724 42.0165V47.1875H79.1742L75.4724 42.0165ZM75.4724 50.63H81.6373L79.5343 47.706L79.0878 47.7204H75.4724V50.63ZM75.8469 41.6708L79.7648 47.1443C80.3938 47.0185 80.9593 46.6772 81.3636 46.1792C81.7795 45.6888 82.0045 45.0649 81.9974 44.4219C82.0032 43.9151 81.8686 43.4166 81.6085 42.9815C81.3495 42.5496 80.9686 42.2038 80.5138 41.9877C80.0913 41.7764 79.5391 41.6708 78.8573 41.6708H75.8469Z" fill="white"/>
<defs>
<filter id="filter0_b" x="-30.5001" y="-30" width="166.987" height="150" filterUnits="userSpaceOnUse" color-interpolation-filters="sRGB">
<feFlood flood-opacity="0" result="BackgroundImageFix"/>
<feGaussianBlur in="BackgroundImage" stdDeviation="15"/>
<feComposite in2="SourceAlpha" operator="in" result="effect1_backgroundBlur"/>
<feBlend mode="normal" in="SourceGraphic" in2="effect1_backgroundBlur" result="shape"/>
</filter>
<linearGradient id="paint0_linear" x1="125.606" y1="-33.8783" x2="-22.6766" y2="135.937" gradientUnits="userSpaceOnUse">
<stop stop-color="#C4C4C4"/>
<stop offset="1" stop-color="#C4C4C4" stop-opacity="0"/>
</linearGradient>
</defs>
</svg>
