<svg aria-hidden="true" style="position:absolute;width:0;height:0" xmlns="http://www.w3.org/2000/svg" overflow="hidden"><defs><symbol id="icon-logo-5" viewBox="0 0 38 32"><path fill="var(--color1, #fff)" d="M13.122 14.533c-.203-.565-.621-.847-1.255-.848h-.2v3.484h.2c.489 0 .851-.193 1.084-.579.196-.329.294-.748.294-1.257 0-.303-.042-.57-.124-.801zM9.693 14.574c.203.565.622.847 1.254.847h.2v-3.484h-.2c-.489 0-.851.193-1.084.579-.196.329-.294.748-.294 1.257 0 .302.041.569.123.801zM6.368 6.373h2.658v.923H7.322v.461h1.416v.876H7.322V9.1h1.704v.923H6.368V6.374zM10.363 6.368h3.44l-1.72 3.728-1.72-3.728zm1.72 3.267l1.421-3.073h-2.837l1.416 3.073zM15.177 6.373h2.658v.923h-1.704v.461h1.416v.876h-1.416V9.1h1.704v.923h-2.658V6.374zM19.471 10.017V6.369h.205l2.548 2.48v-2.48h.194v3.649l-2.947-.001zM25.202 10.022V7.295h-1.379v-.923h2.947v.923h-1.379v2.727h-.189zM7.936 12.665c.231 0 .414.035.551.105a.917.917 0 01.514.839.878.878 0 01-.136.475.966.966 0 01-.372.343c.189.067.355.187.477.346a.877.877 0 01.194.556.951.951 0 01-.139.501c-.09.15-.217.273-.37.359a.979.979 0 01-.257.094c-.094.021-.22.031-.377.031H6.406v-3.649h1.531zM14.084 16.049c-.274-.239-.41-.599-.406-1.078h.855c-.004.199.056.351.178.456s.294.157.514.157c.182 0 .325-.03.43-.089s.157-.15.157-.273c0-.101-.053-.175-.16-.22a1.528 1.528 0 00-.317-.097l-.194-.035a4.18 4.18 0 01-.697-.192c-.19-.071-.36-.188-.493-.341s-.199-.357-.199-.608.066-.466.199-.642c.133-.177.31-.309.532-.396a1.96 1.96 0 01.726-.131c.318 0 .593.059.826.178s.415.299.548.54a.903.903 0 01.121.333c.014.103.021.208.021.312h-.855c0-.189-.051-.328-.152-.417s-.259-.134-.472-.134c-.171 0-.304.03-.399.089s-.142.14-.142.241c0 .112.063.194.189.246.155.061.314.108.477.142.315.063.56.123.737.181.178.059.337.165.459.307.129.147.194.353.194.619 0 .252-.07.468-.21.65s-.324.321-.553.417a1.904 1.904 0 01-.742.144c-.507-.001-.897-.121-1.172-.36zM18.91 16.314v-2.726h-1.379v-.923h2.947v.923h-1.379v2.726h-.189zM21.469 12.665h2.658v.923h-1.704v.461h1.416v.876h-1.416v.467h1.704v.923h-2.658v-3.649zM28.065 16.314H25.26v-3.649h1.421c.304 0 .552.054.745.163.184.1.336.249.44.43.105.183.16.392.157.603.003.265-.086.524-.252.731a1.177 1.177 0 01-.634.427l.928 1.295zm-2.612-3.33v1.882h1.348l-1.348-1.882zm0 3.136h2.244l-.765-1.064-.163.005h-1.316v1.059zm.137-3.262l1.426 1.992c.229-.046.435-.17.582-.351a.978.978 0 00.231-.64.997.997 0 00-.142-.524.935.935 0 00-.398-.362c-.154-.077-.355-.115-.603-.115H25.59z"/></symbol>
<symbol id="icon-facebook" viewBox="0 0 32 32">
<path d="M21.329 5.313h2.921v-5.088c-0.504-0.069-2.237-0.225-4.256-0.225-4.212 0-7.097 2.649-7.097 7.519v4.481h-4.648v5.688h4.648v14.312h5.699v-14.311h4.46l0.708-5.688h-5.169v-3.919c0.001-1.644 0.444-2.769 2.735-2.769z"></path>
</symbol>
<symbol id="icon-instagram" viewBox="0 0 32 32">
<path d="M31.969 9.408c-0.075-1.7-0.35-2.869-0.744-3.882-0.406-1.075-1.031-2.038-1.85-2.838-0.8-0.813-1.769-1.444-2.832-1.844-1.019-0.394-2.182-0.669-3.882-0.744-1.713-0.081-2.257-0.1-6.601-0.1s-4.888 0.019-6.595 0.094c-1.7 0.075-2.869 0.35-3.882 0.744-1.075 0.406-2.038 1.031-2.838 1.85-0.813 0.8-1.444 1.769-1.844 2.832-0.394 1.019-0.669 2.182-0.744 3.882-0.081 1.713-0.1 2.257-0.1 6.601s0.019 4.888 0.094 6.595c0.075 1.7 0.35 2.869 0.744 3.882 0.406 1.075 1.038 2.038 1.85 2.838 0.8 0.813 1.769 1.444 2.832 1.844 1.019 0.394 2.182 0.669 3.882 0.744 1.706 0.075 2.25 0.094 6.595 0.094s4.888-0.019 6.595-0.094c1.7-0.075 2.869-0.35 3.882-0.744 2.151-0.832 3.851-2.532 4.682-4.682 0.394-1.019 0.669-2.182 0.744-3.882 0.075-1.707 0.094-2.251 0.094-6.595s-0.006-4.888-0.081-6.595zM29.087 22.473c-0.069 1.563-0.331 2.407-0.55 2.969-0.538 1.394-1.644 2.5-3.038 3.038-0.563 0.219-1.413 0.481-2.969 0.55-1.688 0.075-2.194 0.094-6.464 0.094s-4.782-0.019-6.464-0.094c-1.563-0.069-2.407-0.331-2.969-0.55-0.694-0.256-1.325-0.663-1.838-1.194-0.531-0.519-0.938-1.144-1.194-1.838-0.219-0.563-0.481-1.413-0.55-2.969-0.075-1.688-0.094-2.194-0.094-6.464s0.019-4.782 0.094-6.464c0.069-1.563 0.331-2.407 0.55-2.969 0.256-0.694 0.663-1.325 1.2-1.838 0.519-0.531 1.144-0.938 1.838-1.194 0.563-0.219 1.413-0.481 2.969-0.55 1.688-0.075 2.194-0.094 6.464-0.094 4.276 0 4.782 0.019 6.464 0.094 1.563 0.069 2.407 0.331 2.969 0.55 0.694 0.256 1.325 0.662 1.838 1.194 0.531 0.519 0.938 1.144 1.194 1.838 0.219 0.563 0.481 1.413 0.55 2.969 0.075 1.688 0.094 2.194 0.094 6.464s-0.019 4.77-0.094 6.458z"></path>
<path d="M16.059 7.783c-4.538 0-8.22 3.682-8.22 8.22s3.682 8.22 8.22 8.22c4.538 0 8.22-3.682 8.22-8.22s-3.682-8.22-8.22-8.22zM16.059 21.335c-2.944 0-5.332-2.388-5.332-5.332s2.388-5.332 5.332-5.332c2.944 0 5.332 2.388 5.332 5.332s-2.388 5.332-5.332 5.332z"></path>
<path d="M26.524 7.458c0 1.060-0.859 1.919-1.919 1.919s-1.919-0.859-1.919-1.919c0-1.060 0.859-1.919 1.919-1.919s1.919 0.859 1.919 1.919z"></path>
</symbol>
<symbol id="icon-twitter" viewBox="0 0 32 32">
<path d="M32 6.078c-1.19 0.522-2.458 0.868-3.78 1.036 1.36-0.812 2.398-2.088 2.886-3.626-1.268 0.756-2.668 1.29-4.16 1.588-1.204-1.282-2.92-2.076-4.792-2.076-3.632 0-6.556 2.948-6.556 6.562 0 0.52 0.044 1.020 0.152 1.496-5.454-0.266-10.28-2.88-13.522-6.862-0.566 0.982-0.898 2.106-0.898 3.316 0 2.272 1.17 4.286 2.914 5.452-1.054-0.020-2.088-0.326-2.964-0.808 0 0.020 0 0.046 0 0.072 0 3.188 2.274 5.836 5.256 6.446-0.534 0.146-1.116 0.216-1.72 0.216-0.42 0-0.844-0.024-1.242-0.112 0.85 2.598 3.262 4.508 6.13 4.57-2.232 1.746-5.066 2.798-8.134 2.798-0.538 0-1.054-0.024-1.57-0.090 2.906 1.874 6.35 2.944 10.064 2.944 12.072 0 18.672-10 18.672-18.668 0-0.29-0.010-0.57-0.024-0.848 1.302-0.924 2.396-2.078 3.288-3.406z"></path>
</symbol>
</defs></svg>